<svg version="1.1" id="Layer_1" xmlns="http://www.w3.org/2000/svg" xmlns:xlink="http://www.w3.org/1999/xlink" x="0px" y="0px"
	 width="100%" viewBox="0 0 512 512" enable-background="new 0 0 512 512" xml:space="preserve">
<path fill="#000000" opacity="1.000000" stroke="none" 
	d="
M1.000000,339.000000 
	C1.000000,226.417191 1.000000,113.834381 1.000000,1.000000 
	C84.020721,1.000000 167.041702,1.000000 250.844177,1.283518 
	C250.265442,2.429344 248.967697,3.415971 247.535782,4.135637 
	C217.775757,19.092825 188.037827,34.095184 158.182480,48.860031 
	C154.317444,50.771461 152.942398,53.181412 152.951553,57.284645 
	C153.034561,94.445602 153.035782,131.606903 152.950211,168.767838 
	C152.940704,172.894714 154.378448,175.279907 158.231323,177.157791 
	C171.907333,183.823502 185.384247,190.897705 198.610321,197.982254 
	C193.785736,206.870361 189.287430,215.593369 184.834473,224.228424 
	C182.255875,222.854370 180.472168,221.759140 178.574936,220.920959 
	C173.534729,218.694260 168.530212,220.250916 165.989594,225.010864 
	C159.269363,237.601440 152.772217,250.311844 145.984360,262.865356 
	C140.796646,272.459564 141.921799,276.302307 152.044739,280.542847 
	C152.740677,280.834381 153.372498,281.278961 154.148972,281.717194 
	C149.680344,289.686157 145.340088,297.426208 140.633148,305.089050 
	C130.538391,300.193298 120.774788,295.444580 111.098907,290.523407 
	C106.968391,288.422577 103.084763,288.410278 98.953995,290.489502 
	C74.900063,302.597046 50.829128,314.671234 26.720757,326.669922 
	C18.209808,330.905823 9.577112,334.897064 1.000000,339.000000 
z"/>
<path fill="#000000" opacity="1.000000" stroke="none" 
	d="
M263.000000,0.999998 
	C346.271301,1.000000 429.542603,1.000000 513.000000,1.000000 
	C513.000000,113.354156 513.000000,225.708420 512.754639,338.878082 
	C511.544098,339.084900 510.622528,338.389526 509.607574,337.880341 
	C477.800415,321.923096 446.041718,305.866272 414.071808,290.241547 
	C411.178955,288.827698 406.463104,289.161835 403.374023,290.493744 
	C393.058258,294.941589 383.097382,300.212585 372.678162,304.997070 
	C368.212463,297.072083 364.069183,289.318268 359.898315,281.512848 
	C361.376312,280.838593 362.396790,280.348999 363.435913,279.902863 
	C370.895294,276.700348 372.655487,271.065582 368.819763,264.304535 
	C362.587402,253.319092 356.775055,242.088684 351.011475,230.845795 
	C344.583984,218.307831 342.338715,217.470718 329.360657,223.811905 
	C324.538300,215.013138 319.712036,206.207245 315.179901,197.237915 
	C328.828644,190.431122 342.109589,183.632553 355.582550,177.238571 
	C359.646759,175.309784 361.066223,172.734009 361.055023,168.424805 
	C360.959076,131.432495 360.956635,94.439720 361.057739,57.447441 
	C361.069611,53.101585 359.491516,50.681068 355.506897,48.711903 
	C325.648926,33.956356 295.905792,18.968111 266.163391,3.979948 
	C264.923279,3.355021 264.046204,2.009703 263.000000,0.999998 
z"/>
<path fill="#00BEBD" opacity="1.000000" stroke="none" 
	d="
M373.000580,305.168243 
	C383.097382,300.212585 393.058258,294.941589 403.374023,290.493744 
	C406.463104,289.161835 411.178955,288.827698 414.071808,290.241547 
	C446.041718,305.866272 477.800415,321.923096 509.607574,337.880341 
	C510.622528,338.389526 511.544098,339.084900 512.754639,339.346741 
	C513.000000,379.687561 513.000000,420.375122 512.742432,461.201233 
	C510.443817,462.869232 508.578400,464.748413 506.335114,465.875244 
	C476.936371,480.642792 447.477051,495.289795 418.070709,510.042267 
	C416.857788,510.650757 416.015167,511.997314 415.000000,513.000000 
	C411.307098,513.000000 407.614166,513.000000 403.791504,512.737915 
	C402.314545,511.614014 401.031708,510.624237 399.610657,509.909119 
	C369.876678,494.946899 340.172363,479.924042 310.327728,465.185455 
	C306.239807,463.166656 304.926392,460.621063 304.947174,456.380829 
	C305.024628,440.587646 304.889008,424.793365 304.906281,408.537537 
	C304.930573,403.050568 304.881989,398.025513 304.903564,392.536438 
	C304.982635,376.465302 305.072845,360.857513 304.945709,345.251526 
	C304.912170,341.130920 306.372223,338.745697 310.193695,336.865509 
	C325.946106,329.115265 341.527405,321.017365 357.543976,313.044128 
	C362.944427,310.416748 367.972504,307.792511 373.000580,305.168243 
M417.000000,417.500671 
	C417.000000,442.015686 417.000000,466.530731 417.000000,491.484741 
	C418.594788,490.991394 419.252686,490.882538 419.822876,490.597900 
	C444.406097,478.327454 468.955780,465.989258 493.589050,453.820251 
	C496.818420,452.224915 497.032227,449.854584 497.027130,446.882751 
	C496.980103,419.405487 497.007721,391.928101 496.979340,364.450775 
	C496.977570,362.745544 496.687317,361.040680 496.463470,358.594604 
	C493.866730,359.790497 492.068573,360.559753 490.321899,361.432068 
	C471.405212,370.879242 452.476685,380.303040 433.598328,389.826202 
	C428.127136,392.586151 420.850983,394.401428 417.978729,398.922089 
	C415.232605,403.244263 417.138763,410.522308 417.000000,417.500671 
M368.658691,475.849121 
	C379.168060,481.092926 389.677460,486.336700 400.608124,491.790710 
	C400.808167,490.043549 400.981873,489.232147 400.982300,488.420654 
	C400.997040,459.591095 400.947449,430.761322 401.062317,401.932220 
	C401.075409,398.639008 399.457825,397.265533 396.867432,395.977570 
	C373.296143,384.258148 349.768524,372.451019 326.211792,360.702240 
	C324.823120,360.009674 323.294220,359.598267 321.566071,358.958008 
	C321.301880,360.468231 321.038483,361.273529 321.037811,362.079010 
	C321.013306,390.908539 320.939148,419.738678 321.184235,448.566071 
	C321.199860,450.403290 323.322876,452.981903 325.136475,453.924072 
	C339.329987,461.297699 353.687592,468.355438 368.658691,475.849121 
M452.678131,327.809601 
	C439.563202,321.248138 426.396667,314.786530 413.370361,308.053589 
	C410.194733,306.412140 407.700500,306.525818 404.561157,308.116730 
	C381.967987,319.565918 359.282227,330.832306 336.634583,342.174225 
	C335.211853,342.886719 333.863007,343.746643 331.947235,344.842621 
	C333.450562,345.838043 334.318176,346.550049 335.296814,347.040405 
	C358.832825,358.832367 382.352936,370.657196 405.983887,382.256104 
	C407.707703,383.102234 410.599762,382.990753 412.359558,382.125885 
	C435.537323,370.734406 458.611847,359.132690 481.700989,347.561218 
	C483.067963,346.876160 484.339355,346.000397 486.467743,344.727417 
	C474.761353,338.861847 464.055115,333.497437 452.678131,327.809601 
z"/>
<path fill="#50D9D7" opacity="1.000000" stroke="none" 
	d="
M1.000000,339.468658 
	C9.577112,334.897064 18.209808,330.905823 26.720757,326.669922 
	C50.829128,314.671234 74.900063,302.597046 98.953995,290.489502 
	C103.084763,288.410278 106.968391,288.422577 111.098907,290.523407 
	C120.774788,295.444580 130.538391,300.193298 140.754791,305.408417 
	C146.439575,308.217865 151.636047,310.630707 157.010590,313.360901 
	C172.567139,321.360840 187.872192,329.196594 203.372787,336.624298 
	C207.536072,338.619293 209.112793,341.132141 209.073944,345.646271 
	C208.938126,361.429535 209.111053,377.215454 209.095825,393.462463 
	C209.072220,398.949585 209.119461,403.974609 209.093597,409.463257 
	C209.013596,425.569641 208.934433,441.212952 209.048920,456.854858 
	C209.078690,460.923706 207.659027,463.245850 203.823639,465.131714 
	C173.653687,479.966156 143.604065,495.045624 113.557190,510.128906 
	C112.492630,510.663300 111.843018,512.024292 111.000008,513.000000 
	C107.307091,513.000000 103.614182,513.000000 99.795021,512.739380 
	C98.487350,511.659149 97.385551,510.680389 96.112686,510.043518 
	C74.031349,498.995392 51.944466,487.958069 29.824041,476.988434 
	C20.256569,472.243896 10.610406,467.657990 0.999998,463.000000 
	C1.000000,421.979095 1.000000,380.958221 1.000000,339.468658 
M118.660751,395.221283 
	C114.222878,396.625610 112.841408,399.498230 112.883408,404.239532 
	C113.123817,431.385773 113.000221,458.535278 113.000206,485.683655 
	C113.000198,487.432404 113.000198,489.181122 113.000198,491.511963 
	C114.736588,490.894012 115.681435,490.663788 116.529854,490.240387 
	C140.820221,478.118500 165.082977,465.941071 189.407150,453.887604 
	C192.254074,452.476837 193.049149,450.526550 193.041306,447.544830 
	C192.967575,419.563873 193.005341,391.582642 192.974075,363.601501 
	C192.972519,362.209015 192.631424,360.816925 192.314896,358.408539 
	C167.479294,370.826294 143.410889,382.860443 118.660751,395.221283 
M71.976387,385.552643 
	C54.064285,376.593262 36.152187,367.633881 17.471130,358.289886 
	C17.239595,361.100891 17.017542,362.547577 17.016485,363.994415 
	C16.996164,391.808563 17.060236,419.623016 16.929918,447.436554 
	C16.913147,451.016113 18.359314,452.765656 21.400126,454.270844 
	C45.132259,466.018066 68.791687,477.912170 92.486053,489.735840 
	C93.724876,490.354065 95.077293,490.744598 96.396622,491.248718 
	C96.697083,490.381683 96.898491,490.071411 96.898903,489.760834 
	C96.937881,460.282654 97.025421,430.804047 96.824303,401.327362 
	C96.812485,399.595734 94.833153,397.213867 93.137794,396.274353 
	C86.443481,392.564514 79.497086,389.309570 71.976387,385.552643 
M144.675400,325.814880 
	C132.906219,319.926392 121.082703,314.142609 109.403801,308.080231 
	C106.246025,306.441101 103.740547,306.512207 100.590172,308.108734 
	C78.004463,319.554474 55.325188,330.815491 32.684231,342.152313 
	C31.257921,342.866516 29.904030,343.725311 27.978859,344.823456 
	C29.457884,345.834656 30.305653,346.569061 31.277422,347.056000 
	C54.806789,358.846802 78.310844,370.690155 101.961899,382.232208 
	C103.878860,383.167725 107.169563,382.720276 109.230385,381.709473 
	C131.960831,370.560120 154.576935,359.177490 177.212540,347.835144 
	C178.734924,347.072296 180.164734,346.124756 182.516663,344.748779 
	C169.428223,338.196106 157.386932,332.167694 144.675400,325.814880 
z"/>
<path fill="#00AAA8" opacity="1.000000" stroke="none" 
	d="
M262.539368,0.999998 
	C264.046204,2.009703 264.923279,3.355021 266.163391,3.979948 
	C295.905792,18.968111 325.648926,33.956356 355.506897,48.711903 
	C359.491516,50.681068 361.069611,53.101585 361.057739,57.447441 
	C360.956635,94.439720 360.959076,131.432495 361.055023,168.424805 
	C361.066223,172.734009 359.646759,175.309784 355.582550,177.238571 
	C342.109589,183.632553 328.828644,190.431122 314.805115,197.307190 
	C309.371490,200.028824 304.606781,202.517746 299.525635,205.147736 
	C287.238861,211.291550 275.185150,217.136032 263.340973,223.378128 
	C258.855316,225.742126 255.091888,225.664246 250.608887,223.349533 
	C238.857513,217.281860 226.884964,211.642502 214.872467,205.514587 
	C209.475113,202.736862 204.205856,200.277008 198.936584,197.817154 
	C185.384247,190.897705 171.907333,183.823502 158.231323,177.157791 
	C154.378448,175.279907 152.940704,172.894714 152.950211,168.767838 
	C153.035782,131.606903 153.034561,94.445602 152.951553,57.284645 
	C152.942398,53.181412 154.317444,50.771461 158.182480,48.860031 
	C188.037827,34.095184 217.775757,19.092825 247.535782,4.135637 
	C248.967697,3.415971 250.265442,2.429344 251.312836,1.283518 
	C254.692917,1.000000 258.385834,1.000000 262.539368,0.999998 
M342.772369,165.061996 
	C343.514618,163.007355 344.892365,160.956055 344.903107,158.897583 
	C345.046722,131.401199 345.010986,103.903809 344.970520,76.406738 
	C344.968018,74.718254 344.552490,73.030373 344.245026,70.706154 
	C341.811310,71.785469 340.135010,72.450882 338.527283,73.253616 
	C315.715637,84.643295 292.956055,96.138618 270.067261,107.370895 
	C266.190826,109.273186 264.889801,111.638313 264.915222,115.864502 
	C265.080627,143.360641 264.994476,170.858261 265.014984,198.355377 
	C265.016144,199.907562 265.232391,201.459579 265.407715,203.802032 
	C291.492615,190.753021 316.793640,178.096130 342.772369,165.061996 
M248.992081,200.600327 
	C248.994614,172.270020 248.927200,143.939331 249.078522,115.609802 
	C249.100067,111.575432 247.865051,109.308533 244.150757,107.483589 
	C221.117874,96.166885 198.210968,84.593941 175.240692,73.149315 
	C173.566681,72.315254 171.722565,71.822586 169.661224,71.061829 
	C169.359741,72.740692 169.037933,73.699883 169.036942,74.659401 
	C169.007462,103.156303 168.937042,131.653839 169.168930,160.148865 
	C169.184570,162.071243 171.080658,164.751129 172.851532,165.749527 
	C179.665771,169.591324 186.785263,172.891678 193.790573,176.394638 
	C210.633102,184.816681 227.454895,193.281006 244.360580,201.574310 
	C245.584946,202.174957 247.652557,205.218170 248.992081,200.600327 
M260.038330,94.475693 
	C284.542755,82.224854 309.047180,69.974022 334.570740,57.213684 
	C332.125641,55.786758 330.799286,54.911194 329.388367,54.204510 
	C306.607910,42.794361 283.786438,31.465345 261.063782,19.941412 
	C258.005676,18.390474 255.630829,18.601746 252.701569,20.081514 
	C230.109192,31.494413 207.445557,42.766193 184.816360,54.106373 
	C183.295715,54.868408 181.875839,55.831535 180.296219,56.768063 
	C181.006439,57.578503 181.174637,57.922676 181.446991,58.059563 
	C205.846268,70.322479 230.239456,82.597878 254.700653,94.736191 
	C255.962051,95.362137 257.810089,94.805916 260.038330,94.475693 
z"/>
<path fill="#000000" opacity="1.000000" stroke="none" 
	d="
M111.468666,513.000000 
	C111.843018,512.024292 112.492630,510.663300 113.557190,510.128906 
	C143.604065,495.045624 173.653687,479.966156 203.823639,465.131714 
	C207.659027,463.245850 209.078690,460.923706 209.048920,456.854858 
	C208.934433,441.212952 209.013596,425.569641 209.550354,409.463440 
	C214.991013,409.000000 219.901840,409.000000 225.000198,409.000000 
	C225.000198,412.313080 224.956802,414.957275 225.009338,417.599579 
	C225.114578,422.893402 227.166931,424.969910 232.539734,424.984192 
	C248.813843,425.027405 265.088196,425.024536 281.362335,424.986206 
	C286.888672,424.973206 288.931824,422.821198 288.994965,417.184296 
	C289.024170,414.576721 288.999939,411.968536 288.999939,408.999512 
	C294.607788,408.999512 299.720581,408.999512 304.833374,408.999512 
	C304.889008,424.793365 305.024628,440.587646 304.947174,456.380829 
	C304.926392,460.621063 306.239807,463.166656 310.327728,465.185455 
	C340.172363,479.924042 369.876678,494.946899 399.610657,509.909119 
	C401.031708,510.624237 402.314545,511.614014 403.330872,512.737915 
	C305.979095,513.000000 208.958206,513.000000 111.468666,513.000000 
z"/>
<path fill="#000000" opacity="1.000000" stroke="none" 
	d="
M415.468689,513.000000 
	C416.015167,511.997314 416.857788,510.650757 418.070709,510.042267 
	C447.477051,495.289795 476.936371,480.642792 506.335114,465.875244 
	C508.578400,464.748413 510.443817,462.869232 512.742432,461.669891 
	C513.000000,478.949921 513.000000,495.899872 513.000000,513.000000 
	C480.645905,513.000000 448.291626,513.000000 415.468689,513.000000 
z"/>
<path fill="#000000" opacity="1.000000" stroke="none" 
	d="
M0.999998,463.468658 
	C10.610406,467.657990 20.256569,472.243896 29.824041,476.988434 
	C51.944466,487.958069 74.031349,498.995392 96.112686,510.043518 
	C97.385551,510.680389 98.487350,511.659149 99.334381,512.739380 
	C66.430183,513.000000 33.860363,513.000000 1.000000,513.000000 
	C1.000000,496.646912 1.000000,480.292114 0.999998,463.468658 
z"/>
<path fill="#FFAC00" opacity="1.000000" stroke="none" 
	d="
M198.610321,197.982254 
	C204.205856,200.277008 209.475113,202.736862 214.552902,205.684723 
	C209.578873,214.935181 204.796326,223.697632 200.050232,232.393280 
	C202.416656,233.696823 204.491058,234.661789 206.375702,235.912689 
	C211.080414,239.035385 212.245056,244.097626 209.598221,248.975342 
	C202.713364,261.663086 195.791061,274.331207 189.016144,287.077545 
	C185.334579,294.004089 181.391541,295.627075 174.180496,292.580566 
	C172.594421,291.910492 171.187393,290.816620 169.346146,289.705658 
	C165.100052,297.624603 160.966293,305.334076 156.832535,313.043518 
	C151.636047,310.630707 146.439575,308.217865 141.121460,305.485657 
	C145.340088,297.426208 149.680344,289.686157 154.148972,281.717194 
	C153.372498,281.278961 152.740677,280.834381 152.044739,280.542847 
	C141.921799,276.302307 140.796646,272.459564 145.984360,262.865356 
	C152.772217,250.311844 159.269363,237.601440 165.989594,225.010864 
	C168.530212,220.250916 173.534729,218.694260 178.574936,220.920959 
	C180.472168,221.759140 182.255875,222.854370 184.834473,224.228424 
	C189.287430,215.593369 193.785736,206.870361 198.610321,197.982254 
M176.389404,273.902466 
	C181.190720,265.090424 185.992035,256.278381 190.783035,247.485306 
	C186.557404,245.182144 182.339432,242.883179 177.665588,240.335724 
	C173.179916,248.783493 168.876053,256.717010 164.825043,264.777618 
	C164.409103,265.605286 165.123871,267.753906 165.967743,268.327087 
	C169.038849,270.412994 172.387726,272.089996 176.389404,273.902466 
z"/>
<path fill="#FFAC00" opacity="1.000000" stroke="none" 
	d="
M299.842102,205.006683 
	C304.606781,202.517746 309.371490,200.028824 314.510986,197.470612 
	C319.712036,206.207245 324.538300,215.013138 329.360657,223.811905 
	C342.338715,217.470718 344.583984,218.307831 351.011475,230.845795 
	C356.775055,242.088684 362.587402,253.319092 368.819763,264.304535 
	C372.655487,271.065582 370.895294,276.700348 363.435913,279.902863 
	C362.396790,280.348999 361.376312,280.838593 359.898315,281.512848 
	C364.069183,289.318268 368.212463,297.072083 372.678162,304.997070 
	C367.972504,307.792511 362.944427,310.416748 357.396759,312.709106 
	C352.882568,304.979980 348.887970,297.582703 344.839874,290.086395 
	C342.741028,291.138580 340.903900,292.108246 339.026184,292.991608 
	C333.845581,295.428741 328.756561,293.964203 326.043854,288.899658 
	C318.626068,275.050964 311.313354,261.145203 304.068909,247.204941 
	C301.614105,242.481201 303.277618,237.981476 308.104919,235.432816 
	C310.069550,234.395554 312.065216,233.417145 313.839996,232.516846 
	C309.082458,223.166840 304.462280,214.086777 299.842102,205.006683 
M324.433960,248.953049 
	C328.845886,257.338623 333.257843,265.724213 337.653229,274.078308 
	C342.261658,271.405060 346.508148,268.941803 350.643829,266.542786 
	C345.863892,257.632599 341.143890,248.834198 336.343323,239.885529 
	C334.495636,240.788132 332.613312,241.424194 331.065491,242.528885 
	C328.618134,244.275574 326.394958,246.336411 324.433960,248.953049 
z"/>
<path fill="#000000" opacity="1.000000" stroke="none" 
	d="
M299.525635,205.147736 
	C304.462280,214.086777 309.082458,223.166840 313.839996,232.516846 
	C312.065216,233.417145 310.069550,234.395554 308.104919,235.432816 
	C303.277618,237.981476 301.614105,242.481201 304.068909,247.204941 
	C311.313354,261.145203 318.626068,275.050964 326.043854,288.899658 
	C328.756561,293.964203 333.845581,295.428741 339.026184,292.991608 
	C340.903900,292.108246 342.741028,291.138580 344.839874,290.086395 
	C348.887970,297.582703 352.882568,304.979980 357.024384,312.712250 
	C341.527405,321.017365 325.946106,329.115265 310.193695,336.865509 
	C306.372223,338.745697 304.912170,341.130920 304.945709,345.251526 
	C305.072845,360.857513 304.982635,376.465302 304.446838,392.536255 
	C299.008301,393.000092 294.096680,393.000092 288.999786,393.000092 
	C288.999786,389.684387 289.043488,387.039459 288.990570,384.396454 
	C288.884583,379.102356 286.832581,377.029785 281.454010,377.015625 
	C265.176971,376.972778 248.899719,376.974609 232.622681,377.014313 
	C227.068802,377.027832 225.069397,379.140137 225.005112,384.811462 
	C224.975540,387.419739 225.000061,390.028595 225.000061,393.000366 
	C219.393646,393.000366 214.280167,393.000366 209.166687,393.000366 
	C209.111053,377.215454 208.938126,361.429535 209.073944,345.646271 
	C209.112793,341.132141 207.536072,338.619293 203.372787,336.624298 
	C187.872192,329.196594 172.567139,321.360840 157.010620,313.360901 
	C160.966293,305.334076 165.100052,297.624603 169.346146,289.705658 
	C171.187393,290.816620 172.594421,291.910492 174.180496,292.580566 
	C181.391541,295.627075 185.334579,294.004089 189.016144,287.077545 
	C195.791061,274.331207 202.713364,261.663086 209.598221,248.975342 
	C212.245056,244.097626 211.080414,239.035385 206.375702,235.912689 
	C204.491058,234.661789 202.416656,233.696823 200.050232,232.393280 
	C204.796326,223.697632 209.578873,214.935181 214.680984,206.002594 
	C226.884964,211.642502 238.857513,217.281860 250.608887,223.349533 
	C255.091888,225.664246 258.855316,225.742126 263.340973,223.378128 
	C275.185150,217.136032 287.238861,211.291550 299.525635,205.147736 
z"/>
<path fill="#50D9D7" opacity="1.000000" stroke="none" 
	d="
M417.000000,417.000885 
	C417.138763,410.522308 415.232605,403.244263 417.978729,398.922089 
	C420.850983,394.401428 428.127136,392.586151 433.598328,389.826202 
	C452.476685,380.303040 471.405212,370.879242 490.321899,361.432068 
	C492.068573,360.559753 493.866730,359.790497 496.463470,358.594604 
	C496.687317,361.040680 496.977570,362.745544 496.979340,364.450775 
	C497.007721,391.928101 496.980103,419.405487 497.027130,446.882751 
	C497.032227,449.854584 496.818420,452.224915 493.589050,453.820251 
	C468.955780,465.989258 444.406097,478.327454 419.822876,490.597900 
	C419.252686,490.882538 418.594788,490.991394 417.000000,491.484741 
	C417.000000,466.530731 417.000000,442.015686 417.000000,417.000885 
z"/>
<path fill="#50D9D7" opacity="1.000000" stroke="none" 
	d="
M368.326630,475.679871 
	C353.687592,468.355438 339.329987,461.297699 325.136475,453.924072 
	C323.322876,452.981903 321.199860,450.403290 321.184235,448.566071 
	C320.939148,419.738678 321.013306,390.908539 321.037811,362.079010 
	C321.038483,361.273529 321.301880,360.468231 321.566071,358.958008 
	C323.294220,359.598267 324.823120,360.009674 326.211792,360.702240 
	C349.768524,372.451019 373.296143,384.258148 396.867432,395.977570 
	C399.457825,397.265533 401.075409,398.639008 401.062317,401.932220 
	C400.947449,430.761322 400.997040,459.591095 400.982300,488.420654 
	C400.981873,489.232147 400.808167,490.043549 400.608124,491.790710 
	C389.677460,486.336700 379.168060,481.092926 368.326630,475.679871 
z"/>
<path fill="#4FD9D7" opacity="1.000000" stroke="none" 
	d="
M453.013489,327.971313 
	C464.055115,333.497437 474.761353,338.861847 486.467743,344.727417 
	C484.339355,346.000397 483.067963,346.876160 481.700989,347.561218 
	C458.611847,359.132690 435.537323,370.734406 412.359558,382.125885 
	C410.599762,382.990753 407.707703,383.102234 405.983887,382.256104 
	C382.352936,370.657196 358.832825,358.832367 335.296814,347.040405 
	C334.318176,346.550049 333.450562,345.838043 331.947235,344.842621 
	C333.863007,343.746643 335.211853,342.886719 336.634583,342.174225 
	C359.282227,330.832306 381.967987,319.565918 404.561157,308.116730 
	C407.700500,306.525818 410.194733,306.412140 413.370361,308.053589 
	C426.396667,314.786530 439.563202,321.248138 453.013489,327.971313 
z"/>
<path fill="#FFAC00" opacity="1.000000" stroke="none" 
	d="
M209.095825,393.462463 
	C214.280167,393.000366 219.393646,393.000366 225.000061,393.000366 
	C225.000061,390.028595 224.975540,387.419739 225.005112,384.811462 
	C225.069397,379.140137 227.068802,377.027832 232.622681,377.014313 
	C248.899719,376.974609 265.176971,376.972778 281.454010,377.015625 
	C286.832581,377.029785 288.884583,379.102356 288.990570,384.396454 
	C289.043488,387.039459 288.999786,389.684387 288.999786,393.000092 
	C294.096680,393.000092 299.008301,393.000092 304.376648,393.000305 
	C304.881989,398.025513 304.930573,403.050568 304.906281,408.537537 
	C299.720581,408.999512 294.607788,408.999512 288.999939,408.999512 
	C288.999939,411.968536 289.024170,414.576721 288.994965,417.184296 
	C288.931824,422.821198 286.888672,424.973206 281.362335,424.986206 
	C265.088196,425.024536 248.813843,425.027405 232.539734,424.984192 
	C227.166931,424.969910 225.114578,422.893402 225.009338,417.599579 
	C224.956802,414.957275 225.000198,412.313080 225.000198,409.000000 
	C219.901840,409.000000 214.991013,409.000000 209.623444,408.999817 
	C209.119461,403.974609 209.072220,398.949585 209.095825,393.462463 
M271.245331,408.986267 
	C271.825989,408.377380 272.890442,407.783600 272.909973,407.157196 
	C273.053253,402.565125 272.987274,397.966553 272.987274,393.244995 
	C262.128387,393.244995 251.765228,393.244995 241.260010,393.244995 
	C241.260010,398.538086 241.260010,403.583649 241.260010,408.998199 
	C251.105270,408.998199 260.695282,408.998199 271.245331,408.986267 
z"/>
<path fill="#93E6E5" opacity="1.000000" stroke="none" 
	d="
M119.001602,395.057922 
	C143.410889,382.860443 167.479294,370.826294 192.314896,358.408539 
	C192.631424,360.816925 192.972519,362.209015 192.974075,363.601501 
	C193.005341,391.582642 192.967575,419.563873 193.041306,447.544830 
	C193.049149,450.526550 192.254074,452.476837 189.407150,453.887604 
	C165.082977,465.941071 140.820221,478.118500 116.529854,490.240387 
	C115.681435,490.663788 114.736588,490.894012 113.000198,491.511963 
	C113.000198,489.181122 113.000198,487.432404 113.000206,485.683655 
	C113.000221,458.535278 113.123817,431.385773 112.883408,404.239532 
	C112.841408,399.498230 114.222878,396.625610 119.001602,395.057922 
z"/>
<path fill="#93E6E5" opacity="1.000000" stroke="none" 
	d="
M72.310287,385.719269 
	C79.497086,389.309570 86.443481,392.564514 93.137794,396.274353 
	C94.833153,397.213867 96.812485,399.595734 96.824303,401.327362 
	C97.025421,430.804047 96.937881,460.282654 96.898903,489.760834 
	C96.898491,490.071411 96.697083,490.381683 96.396622,491.248718 
	C95.077293,490.744598 93.724876,490.354065 92.486053,489.735840 
	C68.791687,477.912170 45.132259,466.018066 21.400126,454.270844 
	C18.359314,452.765656 16.913147,451.016113 16.929918,447.436554 
	C17.060236,419.623016 16.996164,391.808563 17.016485,363.994415 
	C17.017542,362.547577 17.239595,361.100891 17.471130,358.289886 
	C36.152187,367.633881 54.064285,376.593262 72.310287,385.719269 
z"/>
<path fill="#93E6E5" opacity="1.000000" stroke="none" 
	d="
M145.010513,325.977081 
	C157.386932,332.167694 169.428223,338.196106 182.516663,344.748779 
	C180.164734,346.124756 178.734924,347.072296 177.212540,347.835144 
	C154.576935,359.177490 131.960831,370.560120 109.230385,381.709473 
	C107.169563,382.720276 103.878860,383.167725 101.961899,382.232208 
	C78.310844,370.690155 54.806789,358.846802 31.277422,347.056000 
	C30.305653,346.569061 29.457884,345.834656 27.978859,344.823456 
	C29.904030,343.725311 31.257921,342.866516 32.684231,342.152313 
	C55.325188,330.815491 78.004463,319.554474 100.590172,308.108734 
	C103.740547,306.512207 106.246025,306.441101 109.403801,308.080231 
	C121.082703,314.142609 132.906219,319.926392 145.010513,325.977081 
z"/>
<path fill="#00BEBD" opacity="1.000000" stroke="none" 
	d="
M342.433533,165.250610 
	C316.793640,178.096130 291.492615,190.753021 265.407715,203.802032 
	C265.232391,201.459579 265.016144,199.907562 265.014984,198.355377 
	C264.994476,170.858261 265.080627,143.360641 264.915222,115.864502 
	C264.889801,111.638313 266.190826,109.273186 270.067261,107.370895 
	C292.956055,96.138618 315.715637,84.643295 338.527283,73.253616 
	C340.135010,72.450882 341.811310,71.785469 344.245026,70.706154 
	C344.552490,73.030373 344.968018,74.718254 344.970520,76.406738 
	C345.010986,103.903809 345.046722,131.401199 344.903107,158.897583 
	C344.892365,160.956055 343.514618,163.007355 342.433533,165.250610 
z"/>
<path fill="#00BEBD" opacity="1.000000" stroke="none" 
	d="
M248.977478,200.983582 
	C247.652557,205.218170 245.584946,202.174957 244.360580,201.574310 
	C227.454895,193.281006 210.633102,184.816681 193.790573,176.394638 
	C186.785263,172.891678 179.665771,169.591324 172.851532,165.749527 
	C171.080658,164.751129 169.184570,162.071243 169.168930,160.148865 
	C168.937042,131.653839 169.007462,103.156303 169.036942,74.659401 
	C169.037933,73.699883 169.359741,72.740692 169.661224,71.061829 
	C171.722565,71.822586 173.566681,72.315254 175.240692,73.149315 
	C198.210968,84.593941 221.117874,96.166885 244.150757,107.483589 
	C247.865051,109.308533 249.100067,111.575432 249.078522,115.609802 
	C248.927200,143.939331 248.994614,172.270020 248.977478,200.983582 
z"/>
<path fill="#00BEBD" opacity="1.000000" stroke="none" 
	d="
M259.711670,94.637894 
	C257.810089,94.805916 255.962051,95.362137 254.700653,94.736191 
	C230.239456,82.597878 205.846268,70.322479 181.446991,58.059563 
	C181.174637,57.922676 181.006439,57.578503 180.296219,56.768063 
	C181.875839,55.831535 183.295715,54.868408 184.816360,54.106373 
	C207.445557,42.766193 230.109192,31.494413 252.701569,20.081514 
	C255.630829,18.601746 258.005676,18.390474 261.063782,19.941412 
	C283.786438,31.465345 306.607910,42.794361 329.388367,54.204510 
	C330.799286,54.911194 332.125641,55.786758 334.570740,57.213684 
	C309.047180,69.974022 284.542755,82.224854 259.711670,94.637894 
z"/>
<path fill="#000000" opacity="1.000000" stroke="none" 
	d="
M176.010651,273.911804 
	C172.387726,272.089996 169.038849,270.412994 165.967743,268.327087 
	C165.123871,267.753906 164.409103,265.605286 164.825043,264.777618 
	C168.876053,256.717010 173.179916,248.783493 177.665588,240.335724 
	C182.339432,242.883179 186.557404,245.182144 190.783035,247.485306 
	C185.992035,256.278381 181.190720,265.090424 176.010651,273.911804 
z"/>
<path fill="#000000" opacity="1.000000" stroke="none" 
	d="
M324.255432,248.608673 
	C326.394958,246.336411 328.618134,244.275574 331.065491,242.528885 
	C332.613312,241.424194 334.495636,240.788132 336.343323,239.885529 
	C341.143890,248.834198 345.863892,257.632599 350.643829,266.542786 
	C346.508148,268.941803 342.261658,271.405060 337.653229,274.078308 
	C333.257843,265.724213 328.845886,257.338623 324.255432,248.608673 
z"/>
<path fill="#000000" opacity="1.000000" stroke="none" 
	d="
M270.765320,408.992249 
	C260.695282,408.998199 251.105270,408.998199 241.260010,408.998199 
	C241.260010,403.583649 241.260010,398.538086 241.260010,393.244995 
	C251.765228,393.244995 262.128387,393.244995 272.987274,393.244995 
	C272.987274,397.966553 273.053253,402.565125 272.909973,407.157196 
	C272.890442,407.783600 271.825989,408.377380 270.765320,408.992249 
z"/>
</svg>